<svg width="33.004761" height="38.996460" viewBox="0 0 33.0048 38.9965" fill="none" xmlns="http://www.w3.org/2000/svg" xmlns:xlink="http://www.w3.org/1999/xlink">
	<desc>
			Created with Pixso.
	</desc>
	<defs/>
	<path id="Vector" d="M0.05 11.71C0.04 11.3 -0.03 9.04 0.05 7.21C0.06 6.92 0.09 6.41 0.45 6.05C0.71 5.78 1.1 5.65 1.61 5.65C3.56 5.66 5.49 5.43 7.38 4.97C10.16 4.26 12.73 2.89 14.86 0.97C15.06 0.79 15.25 0.61 15.45 0.43C16.12 -0.15 16.86 -0.16 17.52 0.44C18.57 1.44 19.73 2.32 20.98 3.07C23.08 4.31 25.43 5.11 27.85 5.4C29.02 5.55 30.2 5.59 31.37 5.65C32.4 5.7 32.93 6.2 32.94 7.22C32.96 10.04 33.04 12.86 32.98 15.67C32.9 19.47 32.4 23.2 30.94 26.76C29.36 30.59 26.8 33.6 23.33 35.88C21.39 37.12 19.3 38.13 17.12 38.87C16.75 39.02 16.34 39.03 15.96 38.91C12.97 37.85 10.16 36.47 7.7 34.44C6.63 33.57 5.67 32.59 4.82 31.51C4.45 31.05 2.76 28.88 1.54 25.43C0.68 23.01 0.23 19 0.23 19C0.23 19 -0.14 14.66 0.05 11.71ZM22.13 13.46L14.52 20.64L11.09 16.87L8.99 18.71C9.06 18.8 9.12 18.88 9.18 18.94C10.53 20.43 11.88 21.92 13.24 23.4C13.94 24.17 14.75 24.19 15.51 23.48L21.82 17.58C22.56 16.9 23.29 16.21 24.05 15.5L22.13 13.46Z" fill="#303030" fill-opacity="1.000000" fill-rule="nonzero"/>
</svg>
