<svg width="75.199951" height="63.439999" viewBox="0 0 75.2 63.44" fill="none" xmlns="http://www.w3.org/2000/svg" xmlns:xlink="http://www.w3.org/1999/xlink">
	<desc>
			Created with Pixso.
	</desc>
	<defs>
		<clipPath id="clip3_2024">
			<rect id="Frame" rx="0.000000" width="74.199997" height="62.439999" transform="translate(0.500000 0.500000)" fill="white" fill-opacity="0"/>
		</clipPath>
	</defs>
	<rect id="Frame" rx="0.000000" width="74.199997" height="62.439999" transform="translate(0.500000 0.500000)" fill="#FFFFFF" fill-opacity="0"/>
	<g clip-path="url(#clip3_2024)">
		<path id="Vector" d="M37.58 63.45L7.05 63.45C6.1 63.45 5.16 63.26 4.29 62.88C3.42 62.51 2.64 61.97 1.98 61.29C1.33 60.6 0.82 59.79 0.49 58.91C0.15 58.02 0 57.08 0.05 56.14C0.14 54.84 0.56 53.59 1.28 52.51L25.66 11.89C27.15 9.4 28.66 6.89 30.15 4.41C30.89 3.06 31.97 1.95 33.29 1.17C34.61 0.39 36.11 -0.02 37.65 -0.02C39.18 -0.02 40.68 0.39 42 1.17C43.32 1.95 44.4 3.06 45.15 4.41C54.81 20.5 64.47 36.6 74.15 52.7C74.86 53.76 75.26 55.01 75.29 56.29C75.32 57.57 74.99 58.84 74.33 59.94C73.72 61.05 72.81 61.97 71.7 62.59C70.59 63.21 69.33 63.51 68.07 63.45L37.58 63.45ZM37.58 58.74L66.06 58.74C66.79 58.74 67.53 58.74 68.26 58.74C68.64 58.73 69.02 58.62 69.35 58.42C69.69 58.23 69.96 57.95 70.16 57.61C70.35 57.28 70.46 56.9 70.46 56.51C70.47 56.13 70.37 55.74 70.19 55.41C70.09 55.21 69.97 55.03 69.86 54.84C63.82 44.78 57.78 34.72 51.75 24.66C48.2 18.75 44.65 12.84 41.11 6.93C40.86 6.43 40.51 6 40.09 5.64C39.66 5.29 39.17 5.02 38.65 4.87C37.77 4.62 36.83 4.68 36 5.04C35.17 5.41 34.49 6.05 34.08 6.87C26.74 19.11 19.41 31.35 12.08 43.59C9.78 47.42 7.48 51.26 5.18 55.1C4.97 55.37 4.83 55.69 4.77 56.03C4.71 56.37 4.73 56.72 4.83 57.05C4.93 57.38 5.1 57.68 5.33 57.93C5.56 58.19 5.85 58.38 6.18 58.51C6.59 58.64 7.03 58.7 7.48 58.69L37.58 58.74Z" fill="#303030" fill-opacity="1.000000" fill-rule="nonzero"/>
		<path id="Vector" d="M39.93 30.56L39.93 38.49C39.97 38.82 39.93 39.15 39.83 39.46C39.73 39.78 39.56 40.07 39.34 40.32C39.12 40.57 38.85 40.77 38.55 40.9C38.25 41.04 37.93 41.12 37.59 41.13C37.26 41.12 36.94 41.05 36.63 40.91C36.33 40.78 36.06 40.58 35.84 40.33C35.62 40.09 35.45 39.8 35.34 39.48C35.24 39.17 35.2 38.84 35.24 38.51L35.24 22.59C35.2 22.26 35.24 21.92 35.34 21.61C35.45 21.29 35.62 21 35.84 20.76C36.07 20.51 36.34 20.32 36.64 20.19C36.95 20.05 37.27 19.98 37.61 19.99C37.93 19.99 38.25 20.06 38.55 20.19C38.84 20.33 39.11 20.52 39.33 20.76C39.55 21 39.71 21.29 39.82 21.6C39.92 21.9 39.96 22.23 39.93 22.56C39.95 25.23 39.93 27.89 39.93 30.56Z" fill="#303030" fill-opacity="1.000000" fill-rule="nonzero"/>
		<path id="Vector" d="M41.1 47C41.1 47.46 41.01 47.92 40.83 48.35C40.66 48.78 40.39 49.17 40.06 49.5C39.73 49.83 39.34 50.09 38.91 50.26C38.48 50.44 38.02 50.53 37.55 50.53C36.62 50.52 35.74 50.14 35.08 49.48C34.43 48.82 34.06 47.93 34.06 47C34.06 46.53 34.15 46.07 34.33 45.64C34.51 45.21 34.77 44.81 35.1 44.49C35.43 44.16 35.82 43.9 36.25 43.72C36.69 43.55 37.15 43.46 37.61 43.47C38.54 43.47 39.43 43.85 40.09 44.51C40.74 45.17 41.11 46.06 41.1 47Z" fill="#303030" fill-opacity="1.000000" fill-rule="nonzero"/>
	</g>
</svg>
