<svg width="79.000000" height="79.000000" viewBox="0 0 79 79" fill="none" xmlns="http://www.w3.org/2000/svg" xmlns:xlink="http://www.w3.org/1999/xlink">
	<desc>
			Created with Pixso.
	</desc>
	<defs>
		<clipPath id="clip1_166">
			<rect id="Frame" rx="0.000000" width="78.000000" height="78.000000" transform="translate(0.500000 0.500000)" fill="white" fill-opacity="0"/>
		</clipPath>
	</defs>
	<rect id="Frame" rx="0.000000" width="78.000000" height="78.000000" transform="translate(0.500000 0.500000)" fill="#FFFFFF" fill-opacity="0"/>
	<g clip-path="url(#clip1_166)">
		<path id="Vector" d="M0 39.47C0.01 28.99 4.19 18.96 11.6 11.56C19.02 4.16 29.07 0.02 39.54 0.03C44.73 0.04 49.87 1.06 54.66 3.06C59.45 5.05 63.81 7.96 67.47 11.64C71.13 15.31 74.04 19.67 76.01 24.47C77.99 29.27 79.01 34.41 79 39.6C78.99 44.79 77.95 49.92 75.96 54.72C73.96 59.51 71.05 63.86 67.37 67.52C63.69 71.18 59.33 74.08 54.53 76.06C49.73 78.03 44.59 79.04 39.4 79.03C28.93 79.01 18.9 74.83 11.51 67.41C4.12 59.99 -0.02 49.94 0 39.47ZM75.02 39.52C75.03 34.86 74.12 30.23 72.33 25.92C70.55 21.61 67.94 17.69 64.64 14.39C61.34 11.08 57.43 8.46 53.12 6.68C48.8 4.89 44.18 3.97 39.52 3.97C34.85 3.97 30.23 4.88 25.91 6.66C21.6 8.44 17.68 11.06 14.38 14.36C11.08 17.65 8.46 21.57 6.67 25.88C4.88 30.19 3.97 34.81 3.97 39.48C3.96 44.15 4.88 48.77 6.66 53.08C8.44 57.39 11.05 61.31 14.35 64.61C17.65 67.91 21.56 70.53 25.87 72.32C30.18 74.11 34.8 75.03 39.47 75.03C44.13 75.04 48.76 74.12 53.07 72.34C57.38 70.56 61.3 67.94 64.61 64.65C67.91 61.35 70.53 57.43 72.31 53.12C74.1 48.81 75.02 44.19 75.02 39.52Z" fill="#303030" fill-opacity="1.000000" fill-rule="nonzero"/>
		<path id="Vector" d="M27.62 39.42C27.62 34.74 27.62 30.06 27.62 25.39C27.58 24.68 27.79 23.99 28.24 23.44C28.68 22.89 29.31 22.53 30.01 22.43C30.42 22.39 30.83 22.43 31.23 22.55C31.62 22.67 31.99 22.86 32.3 23.13L46.59 32.66C48.77 34.11 50.95 35.56 53.13 37.02C55.22 38.41 55.22 40.64 53.13 42.03C46.16 46.68 39.19 51.33 32.22 55.97C31.79 56.33 31.27 56.54 30.71 56.6C30.16 56.66 29.6 56.56 29.11 56.31C28.61 56.04 28.2 55.63 27.93 55.14C27.66 54.64 27.54 54.08 27.59 53.52C27.63 48.77 27.62 44.1 27.62 39.42ZM31.68 27.44L31.68 51.55L49.76 39.5L31.68 27.44Z" fill="#303030" fill-opacity="1.000000" fill-rule="nonzero"/>
	</g>
</svg>
