<svg width="95.000000" height="95.000000" viewBox="0 0 95 95" fill="none" xmlns="http://www.w3.org/2000/svg" xmlns:xlink="http://www.w3.org/1999/xlink">
	<desc>
			Created with Pixso.
	</desc>
	<defs>
		<clipPath id="clip3_1947">
			<rect id="Frame" rx="0.000000" width="94.000000" height="94.000000" transform="translate(0.500000 0.500000)" fill="white" fill-opacity="0"/>
		</clipPath>
	</defs>
	<rect id="Frame" rx="0.000000" width="94.000000" height="94.000000" transform="translate(0.500000 0.500000)" fill="#FFFFFF" fill-opacity="0"/>
	<g clip-path="url(#clip3_1947)">
		<path id="Vector" d="M36.41 54.73C30.72 47.96 27.95 39.21 28.7 30.4C29.46 21.58 33.67 13.43 40.43 7.72C46.81 2.41 54.94 -0.34 63.24 0.03C71.54 0.39 79.4 3.84 85.29 9.7C91.15 15.6 94.6 23.48 94.96 31.8C95.32 40.12 92.56 48.26 87.22 54.65C81.51 61.38 73.37 65.57 64.58 66.32C55.8 67.06 47.07 64.3 40.31 58.63C38.56 60.39 36.84 62.2 35.01 63.91C34.54 64.23 34.2 64.71 34.05 65.26C33.9 65.82 33.95 66.4 34.19 66.92C35.33 70.42 34.39 73.54 31.78 76.18C26.92 81.06 22.04 85.94 17.16 90.81C16.52 91.45 15.9 92.09 15.23 92.69C13.48 94.24 11.19 95.07 8.85 94.98C6.51 94.9 4.29 93.92 2.65 92.25C1 90.6 0.05 88.38 0 86.05C-0.04 83.71 0.82 81.45 2.41 79.74C7.99 74 13.65 68.33 19.36 62.76C22.07 60.14 25.44 59.77 28.94 61.1C29.14 61.23 29.39 61.27 29.62 61.22C29.85 61.18 30.06 61.05 30.2 60.87C32.28 58.79 34.36 56.77 36.41 54.73ZM61.79 60.87C65.43 60.88 69.02 60.16 72.38 58.77C75.73 57.38 78.78 55.35 81.35 52.78C83.92 50.21 85.96 47.16 87.35 43.8C88.74 40.45 89.45 36.85 89.45 33.22C89.45 25.88 86.54 18.84 81.35 13.65C76.16 8.46 69.12 5.54 61.79 5.54C58.15 5.54 54.56 6.26 51.2 7.65C47.85 9.04 44.8 11.08 42.23 13.65C39.66 16.22 37.63 19.27 36.24 22.63C34.85 25.98 34.14 29.58 34.15 33.22C34.14 36.85 34.85 40.45 36.24 43.81C37.62 47.17 39.66 50.22 42.23 52.79C44.8 55.36 47.85 57.39 51.21 58.78C54.56 60.17 58.16 60.88 61.79 60.87ZM29.09 70.05C29 68 28.3 66.85 26.89 66.25C26.24 65.94 25.51 65.85 24.8 65.99C24.09 66.12 23.44 66.48 22.95 67.01C17.52 72.41 12.1 77.84 6.69 83.27C6.34 83.6 6.07 83.99 5.88 84.42C5.69 84.86 5.58 85.33 5.58 85.8C5.57 86.27 5.66 86.74 5.85 87.18C6.03 87.62 6.29 88.02 6.63 88.35C6.96 88.7 7.36 88.98 7.8 89.17C8.25 89.36 8.72 89.46 9.2 89.46C9.69 89.46 10.16 89.36 10.61 89.17C11.05 88.98 11.45 88.7 11.78 88.35C17.19 82.97 22.6 77.6 27.96 72.13C28.44 71.5 28.82 70.8 29.09 70.05Z" fill="#303030" fill-opacity="1.000000" fill-rule="nonzero"/>
		<path id="Vector" d="M72.74 33.23C72.74 29.28 72.74 25.32 72.74 21.37C72.73 20.78 72.9 20.2 73.25 19.71C73.59 19.23 74.09 18.88 74.65 18.7C75.18 18.5 75.75 18.49 76.29 18.65C76.83 18.81 77.3 19.15 77.63 19.6C78.02 20.18 78.25 20.86 78.28 21.56C78.32 29.35 78.28 37.13 78.28 44.92C78.3 45.3 78.25 45.68 78.12 46.04C77.99 46.39 77.79 46.72 77.53 47C77.27 47.27 76.95 47.49 76.6 47.64C76.25 47.79 75.87 47.87 75.49 47.86C75.12 47.87 74.74 47.79 74.39 47.64C74.04 47.49 73.73 47.27 73.47 47C73.21 46.72 73.01 46.39 72.88 46.04C72.75 45.68 72.7 45.3 72.73 44.92C72.73 41.03 72.74 37.13 72.74 33.23Z" fill="#303030" fill-opacity="1.000000" fill-rule="nonzero"/>
		<path id="Vector" d="M54.19 35.95C54.19 33.05 54.19 30.17 54.19 27.24C54.19 25.38 55.35 24.1 56.99 24.11C57.38 24.12 57.76 24.21 58.11 24.38C58.47 24.54 58.78 24.77 59.04 25.06C59.3 25.35 59.49 25.69 59.62 26.06C59.74 26.42 59.79 26.81 59.75 27.2C59.75 33.07 59.75 38.94 59.75 44.8C59.79 45.19 59.75 45.58 59.62 45.95C59.5 46.32 59.3 46.66 59.04 46.94C58.78 47.23 58.47 47.46 58.11 47.62C57.76 47.78 57.37 47.86 56.99 47.86C55.33 47.86 54.19 46.64 54.19 44.75C54.18 41.82 54.19 38.89 54.19 35.95Z" fill="#303030" fill-opacity="1.000000" fill-rule="nonzero"/>
		<path id="Vector" d="M63.46 37.75C63.46 35.46 63.46 33.17 63.46 30.88C63.43 30.5 63.48 30.11 63.6 29.74C63.72 29.38 63.92 29.04 64.18 28.75C64.44 28.46 64.76 28.23 65.11 28.07C65.46 27.91 65.84 27.83 66.23 27.83C66.62 27.83 67 27.91 67.36 28.07C67.71 28.23 68.03 28.46 68.29 28.75C68.55 29.03 68.75 29.37 68.88 29.73C69 30.1 69.05 30.49 69.02 30.88C69.02 35.54 69.02 40.2 69.02 44.87C69.05 45.26 69 45.65 68.87 46.01C68.74 46.38 68.53 46.71 68.27 46.99C68 47.27 67.68 47.5 67.32 47.65C66.96 47.8 66.58 47.87 66.19 47.86C65.81 47.86 65.44 47.78 65.09 47.62C64.74 47.47 64.43 47.24 64.18 46.96C63.92 46.68 63.73 46.35 63.6 46C63.48 45.64 63.43 45.26 63.46 44.88C63.46 42.5 63.46 40.12 63.46 37.75Z" fill="#303030" fill-opacity="1.000000" fill-rule="nonzero"/>
		<path id="Vector" d="M44.91 40.6C44.91 39.18 44.91 37.75 44.91 36.34C44.89 35.96 44.95 35.58 45.08 35.23C45.21 34.87 45.41 34.54 45.68 34.27C45.94 33.99 46.25 33.77 46.6 33.62C46.95 33.47 47.33 33.4 47.71 33.4C48.08 33.4 48.44 33.48 48.79 33.63C49.13 33.78 49.43 33.99 49.69 34.26C49.95 34.53 50.15 34.85 50.29 35.19C50.42 35.54 50.48 35.91 50.47 36.28C50.47 39.18 50.47 42.08 50.47 44.99C50.49 45.37 50.43 45.74 50.29 46.1C50.15 46.45 49.94 46.77 49.67 47.04C49.41 47.31 49.09 47.53 48.73 47.67C48.38 47.81 48 47.87 47.62 47.86C47.25 47.86 46.89 47.78 46.55 47.62C46.21 47.47 45.9 47.26 45.65 46.98C45.4 46.71 45.2 46.39 45.07 46.04C44.95 45.69 44.89 45.32 44.91 44.95C44.9 43.5 44.91 42.04 44.91 40.6Z" fill="#303030" fill-opacity="1.000000" fill-rule="nonzero"/>
	</g>
</svg>
