<svg width="91.000000" height="91.000000" viewBox="0 0 91 91" fill="none" xmlns="http://www.w3.org/2000/svg" xmlns:xlink="http://www.w3.org/1999/xlink">
	<desc>
			Created with Pixso.
	</desc>
	<defs>
		<clipPath id="clip3_2113">
			<rect id="Frame" rx="0.000000" width="90.000000" height="90.000000" transform="translate(0.500000 0.500000)" fill="white" fill-opacity="0"/>
		</clipPath>
	</defs>
	<rect id="Frame" rx="0.000000" width="90.000000" height="90.000000" transform="translate(0.500000 0.500000)" fill="#FFFFFF" fill-opacity="0"/>
	<g clip-path="url(#clip3_2113)">
		<path id="Vector" d="M53.03 6.15L11.97 6.15C11.97 6.26 11.94 6.36 11.97 6.42C12.72 7.7 13.07 9.17 12.99 10.65C12.99 33.52 12.99 56.39 12.99 79.25C13 79.49 13 79.73 12.99 79.96C12.88 80.82 13.22 81.08 14.09 81.07C28.51 81.05 42.93 81.05 57.36 81.07C57.74 81.05 58.13 81.08 58.51 81.14C58.67 81.16 58.83 81.21 58.97 81.29C59.11 81.38 59.24 81.49 59.34 81.62C59.44 81.75 59.51 81.9 59.54 82.06C59.58 82.22 59.59 82.39 59.56 82.55C59.55 82.87 59.41 83.17 59.18 83.38C58.95 83.6 58.65 83.72 58.33 83.72C58.07 83.72 57.82 83.72 57.54 83.72L14.08 83.72C11.41 83.72 10.32 82.62 10.32 79.93L10.32 25.09L1.78 25.09C0.41 25.09 -0.02 24.65 -0.02 23.27C-0.02 19.01 -0.02 14.74 -0.02 10.48C-0.02 6.18 2.72 3.46 7.06 3.45C14.97 3.45 22.88 3.45 30.79 3.45C39.14 3.45 47.49 3.45 55.85 3.45C56.31 3.44 56.76 3.31 57.17 3.08C60.08 1.39 63.33 0.38 66.68 0.11C70.04 -0.16 73.41 0.33 76.55 1.53C79.69 2.73 82.52 4.62 84.84 7.06C87.16 9.49 88.9 12.42 89.94 15.62C93.65 27.05 87.11 39.75 75.65 43.38C74.83 43.65 74 43.87 73.16 44.04C72.63 44.14 72.43 44.33 72.43 44.9C72.43 48.78 72.43 52.66 72.47 56.54C72.48 56.7 72.53 56.85 72.62 56.99C72.7 57.12 72.81 57.24 72.94 57.33C75.28 58.67 75.84 61.34 74.22 63.45C74.03 63.7 73.94 64 73.96 64.31C75.06 69.66 75.4 75.13 74.99 80.57C74.99 80.69 74.99 80.81 74.99 81.08C75.84 81.08 76.69 81.11 77.54 81.08C77.7 81.08 77.92 80.81 77.96 80.63C78.01 80.34 78.02 80.04 78 79.74L78 46.38C78 46.11 78 45.84 78 45.58C78.03 44.59 78.51 44.05 79.32 44.05C80.14 44.05 80.59 44.56 80.66 45.51C80.66 45.71 80.66 45.92 80.66 46.13C80.66 57.42 80.66 68.7 80.66 79.99C80.66 82.65 79.56 83.75 76.88 83.75L74.69 83.75C74.52 84.7 74.41 85.6 74.18 86.48C73.89 87.81 73.13 88.99 72.05 89.82C70.97 90.64 69.63 91.06 68.27 91C66.91 90.94 65.62 90.4 64.61 89.49C63.6 88.58 62.94 87.34 62.74 86C61.52 78.89 61.61 71.63 63.01 64.56C63.07 64.14 62.96 63.72 62.71 63.38C62.35 62.92 62.1 62.39 61.98 61.83C61.85 61.27 61.84 60.68 61.96 60.11C62.09 59.55 62.33 59.01 62.68 58.55C63.03 58.09 63.47 57.71 63.98 57.44C64.2 57.35 64.38 57.19 64.49 56.99C64.6 56.79 64.65 56.56 64.61 56.33C64.61 52.57 64.59 48.81 64.61 45.05C64.61 44.38 64.39 44.16 63.75 44.03C55.38 41.98 49.61 36.97 47.07 28.71C44.63 20.77 46.46 13.58 51.94 7.33C52.26 6.95 52.59 6.63 53.03 6.15ZM48.73 22.23C48.73 32.98 57.56 41.75 68.49 41.82C73.7 41.85 78.71 39.81 82.43 36.16C86.14 32.51 88.27 27.54 88.33 22.33C88.39 11.57 79.43 2.68 68.53 2.68C57.62 2.68 48.74 11.49 48.73 22.25L48.73 22.23ZM71.39 64.86C69.7 64.86 68.07 64.88 66.45 64.86C65.87 64.86 65.65 65.02 65.54 65.61C64.3 72.18 64.25 78.91 65.39 85.49C65.68 87.22 66.89 88.33 68.49 88.35C69.26 88.36 70.02 88.09 70.61 87.57C71.19 87.06 71.57 86.35 71.66 85.57C72.86 78.71 72.77 71.69 71.39 64.86ZM10.22 22.37C10.27 22.28 10.31 22.23 10.31 22.18C10.31 17.97 10.38 13.76 10.25 9.56C10.12 8.63 9.68 7.78 9 7.13C7.89 5.99 6.42 5.84 4.97 6.48C4.26 6.76 3.66 7.26 3.25 7.9C2.84 8.54 2.64 9.29 2.68 10.05C2.68 13.99 2.68 17.93 2.68 21.87C2.69 22.03 2.72 22.19 2.76 22.35L10.22 22.37ZM67.35 44.53L67.35 56.84L69.74 56.84L69.74 44.53L67.35 44.53ZM68.49 62.18C69.34 62.18 70.2 62.18 71.04 62.18C71.88 62.18 72.45 61.67 72.48 60.94C72.51 60.21 71.97 59.62 71.04 59.61C69.36 59.57 67.68 59.57 66 59.61C65.06 59.61 64.53 60.15 64.56 60.93C64.59 61.71 65.07 62.14 65.99 62.17C66.84 62.2 67.66 62.18 68.49 62.18Z" fill="#303030" fill-opacity="1.000000" fill-rule="nonzero"/>
		<path id="Vector" d="M42.34 74.11L44.8 74.11C44.8 73.81 44.84 73.5 44.84 73.18C44.84 71.46 44.84 69.75 44.84 68.03C44.87 66.45 45.77 65.59 47.36 65.57C48.33 65.57 49.31 65.57 50.29 65.57C51.77 65.57 52.66 66.44 52.69 67.94C52.73 69.65 52.69 71.37 52.69 73.09L52.69 74.17L54.17 74.17C55.53 74.17 56.9 74.14 58.26 74.21C58.44 74.2 58.62 74.23 58.78 74.3C58.95 74.37 59.1 74.47 59.22 74.6C59.34 74.73 59.44 74.89 59.49 75.06C59.55 75.23 59.57 75.41 59.55 75.59C59.54 75.76 59.5 75.93 59.43 76.09C59.36 76.25 59.26 76.39 59.13 76.5C59.01 76.62 58.86 76.71 58.69 76.76C58.53 76.82 58.36 76.84 58.19 76.83C57.95 76.83 57.72 76.83 57.48 76.83L19.36 76.83C17.57 76.83 17.24 76.49 17.24 74.71C17.24 68.87 17.24 63.04 17.24 57.21C17.22 56.88 17.24 56.55 17.3 56.24C17.35 55.92 17.53 55.64 17.78 55.45C18.04 55.26 18.36 55.17 18.67 55.21C18.98 55.22 19.26 55.34 19.48 55.54C19.7 55.75 19.84 56.03 19.87 56.33C19.91 56.62 19.92 56.92 19.9 57.21C19.9 62.49 19.9 67.76 19.9 73.04L19.9 74.06L24.14 74.06L24.14 73.15C24.14 70.3 24.14 67.46 24.14 64.62C24.14 62.97 25 62.1 26.64 62.07C27.61 62.07 28.59 62.07 29.57 62.07C31.1 62.12 31.97 63.01 31.97 64.54C31.97 67.38 31.97 70.23 31.97 73.07L31.97 74.09L34.48 74.09L34.48 73.07C34.48 68.03 34.48 63 34.48 57.97C34.48 56.03 35.29 55.2 37.2 55.19L39.51 55.19C41.56 55.19 42.31 55.97 42.31 57.96L42.31 74.08L42.34 74.11ZM37.23 57.93L37.23 74.11L39.61 74.11L39.61 57.93L37.23 57.93ZM26.9 64.82L26.9 74.11L29.3 74.11L29.3 64.82L26.9 64.82ZM49.98 74.12L49.98 68.28L47.6 68.28L47.6 74.12L49.98 74.12Z" fill="#303030" fill-opacity="1.000000" fill-rule="nonzero"/>
		<path id="Vector" d="M33.23 41.41L47.27 41.41C47.57 41.4 47.87 41.41 48.16 41.46C48.46 41.51 48.73 41.66 48.93 41.89C49.12 42.11 49.23 42.41 49.22 42.71C49.25 43.01 49.15 43.31 48.96 43.55C48.78 43.8 48.5 43.96 48.2 44.01C47.88 44.07 47.56 44.1 47.23 44.08L18.98 44.08C17.86 44.08 17.23 43.57 17.23 42.74C17.24 41.91 17.87 41.42 18.99 41.42L33.23 41.41Z" fill="#303030" fill-opacity="1.000000" fill-rule="nonzero"/>
		<path id="Vector" d="M30.66 49.25L19.29 49.25C19 49.26 18.7 49.25 18.41 49.22C18.09 49.19 17.8 49.04 17.59 48.8C17.38 48.56 17.27 48.26 17.28 47.94C17.25 47.64 17.35 47.34 17.54 47.1C17.73 46.86 18 46.7 18.3 46.65C18.65 46.59 19 46.57 19.35 46.58L42 46.58C43.42 46.58 44.09 47.03 44.07 47.95C44.05 48.87 43.41 49.25 42.03 49.25L30.66 49.25Z" fill="#303030" fill-opacity="1.000000" fill-rule="nonzero"/>
		<path id="Vector" d="M30.6 38.91L19.32 38.91C18.99 38.93 18.67 38.9 18.35 38.85C18.03 38.82 17.74 38.66 17.54 38.41C17.34 38.17 17.24 37.85 17.26 37.54C17.26 37.2 17.38 36.88 17.61 36.64C17.84 36.41 18.16 36.27 18.49 36.26C18.73 36.25 18.96 36.25 19.2 36.26L42.11 36.26C42.38 36.25 42.64 36.26 42.91 36.29C43.21 36.32 43.49 36.46 43.69 36.68C43.9 36.9 44.02 37.18 44.03 37.49C44.07 37.78 44 38.09 43.83 38.34C43.65 38.58 43.39 38.76 43.1 38.82C42.75 38.9 42.4 38.94 42.05 38.93L30.6 38.91Z" fill="#303030" fill-opacity="1.000000" fill-rule="nonzero"/>
		<path id="Vector" d="M28.9 14.75L19.2 14.75C18.93 14.77 18.66 14.76 18.4 14.72C18.07 14.69 17.76 14.53 17.55 14.27C17.33 14.02 17.23 13.69 17.26 13.35C17.26 13.04 17.38 12.73 17.6 12.5C17.82 12.27 18.11 12.13 18.43 12.11C18.67 12.09 18.9 12.09 19.14 12.11L38.68 12.11C38.95 12.09 39.22 12.11 39.48 12.15C39.78 12.19 40.05 12.33 40.25 12.56C40.45 12.78 40.56 13.07 40.56 13.37C40.6 13.68 40.51 14 40.32 14.25C40.13 14.5 39.85 14.67 39.54 14.72C39.25 14.78 38.95 14.8 38.66 14.78L28.9 14.75Z" fill="#303030" fill-opacity="1.000000" fill-rule="nonzero"/>
		<path id="Vector" d="M25.46 19.93C23.3 19.93 21.14 19.93 18.98 19.93C17.88 19.93 17.24 19.42 17.26 18.58C17.27 17.74 17.9 17.27 18.95 17.27C23.29 17.27 27.64 17.27 31.99 17.27C33.09 17.27 33.72 17.78 33.71 18.63C33.69 19.49 33.09 19.93 32.02 19.93C29.84 19.93 27.65 19.93 25.46 19.93Z" fill="#303030" fill-opacity="1.000000" fill-rule="nonzero"/>
		<path id="Vector" d="M21.99 28.56C20.97 28.56 19.99 28.56 18.98 28.56C17.89 28.56 17.25 28.02 17.26 27.2C17.28 26.38 17.89 25.91 18.94 25.9C21 25.9 23.07 25.9 25.13 25.9C26.15 25.9 26.8 26.41 26.81 27.2C26.83 27.99 26.18 28.55 25.09 28.56C24 28.58 23.02 28.56 21.99 28.56Z" fill="#303030" fill-opacity="1.000000" fill-rule="nonzero"/>
		<path id="Vector" d="M80.72 14.41L80.72 30.18C81.9 28.44 82.67 26.47 82.98 24.39C83.03 24.09 83.1 23.8 83.18 23.51C83.24 23.2 83.42 22.92 83.69 22.75C83.95 22.57 84.27 22.51 84.58 22.57C84.75 22.57 84.91 22.6 85.07 22.68C85.22 22.75 85.35 22.85 85.46 22.98C85.56 23.11 85.64 23.26 85.68 23.42C85.73 23.58 85.73 23.75 85.7 23.91C85.48 25.52 85.09 27.1 84.56 28.63C83.17 32.01 80.75 34.86 77.64 36.78C74.52 38.69 70.88 39.56 67.24 39.27C63.82 39.02 60.55 37.77 57.84 35.66C55.13 33.55 53.11 30.69 52.04 27.43C49.05 18.36 54.59 8.22 63.85 5.84C73.11 3.45 82 8.23 84.98 17.1C85.15 17.6 85.29 18.11 85.41 18.63C85.47 18.81 85.49 19 85.47 19.18C85.45 19.37 85.39 19.54 85.3 19.71C85.21 19.87 85.09 20.01 84.94 20.13C84.8 20.24 84.63 20.32 84.45 20.37C83.76 20.55 83.14 20.13 82.83 19.35C82.25 17.86 81.66 16.39 81.06 14.92C80.96 14.74 80.85 14.57 80.72 14.41ZM77.99 22.32C77.99 18.89 77.99 15.46 77.99 12.03C78.01 11.8 77.97 11.57 77.87 11.36C77.76 11.15 77.61 10.97 77.42 10.85C75.3 9.26 72.8 8.27 70.17 7.96C61.12 6.88 53.24 14.31 53.98 23.36C54.45 29.09 57.49 33.19 62.71 35.44C67.85 37.65 72.83 36.97 77.39 33.69C77.56 33.55 77.69 33.37 77.79 33.17C77.89 32.97 77.94 32.75 77.95 32.53C78.01 29.12 77.99 25.73 77.99 22.32Z" fill="#303030" fill-opacity="1.000000" fill-rule="nonzero"/>
		<path id="Vector" d="M56.85 22.78C56.9 19.2 57.93 16.49 60.12 14.3C60.32 14.12 60.56 13.99 60.81 13.91C61.06 13.83 61.33 13.81 61.59 13.84C61.81 13.92 62.01 14.06 62.16 14.24C62.31 14.42 62.42 14.63 62.47 14.86C62.44 15.38 62.23 15.87 61.87 16.25C60.65 17.63 59.86 19.34 59.62 21.17C59.47 22.34 59.55 23.54 59.88 24.68C60.21 25.82 60.77 26.89 61.53 27.8C61.77 28.1 62.04 28.39 62.24 28.71C62.35 28.84 62.43 28.99 62.48 29.15C62.53 29.31 62.54 29.49 62.53 29.66C62.51 29.83 62.45 29.99 62.37 30.14C62.28 30.29 62.17 30.42 62.03 30.52C61.9 30.63 61.74 30.71 61.58 30.76C61.42 30.81 61.24 30.83 61.07 30.81C60.9 30.8 60.74 30.75 60.58 30.67C60.43 30.59 60.3 30.48 60.19 30.34C58.79 28.97 57.79 27.24 57.29 25.34C57.1 24.49 56.95 23.64 56.85 22.78Z" fill="#303030" fill-opacity="1.000000" fill-rule="nonzero"/>
	</g>
</svg>
