<svg width="119.000000" height="86.000000" viewBox="0 0 119 86" fill="none" xmlns="http://www.w3.org/2000/svg" xmlns:xlink="http://www.w3.org/1999/xlink">
	<desc>
			Created with Pixso.
	</desc>
	<defs>
		<clipPath id="clip3_2059">
			<rect id="Frame" rx="0.000000" width="118.000000" height="85.000000" transform="translate(0.500000 0.500000)" fill="white" fill-opacity="0"/>
		</clipPath>
	</defs>
	<rect id="Frame" rx="0.000000" width="118.000000" height="85.000000" transform="translate(0.500000 0.500000)" fill="#FFFFFF" fill-opacity="0"/>
	<g clip-path="url(#clip3_2059)">
		<path id="Vector" d="M76.18 20.93L109.7 20.93C115.46 20.93 118.97 24.43 118.97 30.18C118.97 35.92 118.97 41.72 118.97 47.48C119.01 47.83 119.01 48.18 118.97 48.53C118.96 48.74 118.9 48.95 118.8 49.14C118.7 49.33 118.56 49.5 118.4 49.64C118.23 49.78 118.04 49.88 117.84 49.95C117.63 50.01 117.42 50.04 117.2 50.02C116.79 50.03 116.39 49.88 116.08 49.6C115.77 49.33 115.58 48.95 115.54 48.54C115.51 48.19 115.51 47.84 115.54 47.49L115.54 30.07C115.54 26.45 113.54 24.42 109.97 24.42L76.23 24.42L76.23 25.81C76.23 31.5 76.11 37.21 76.23 42.89C76.35 48.58 72.27 52.54 66.73 52.36C60.39 52.16 54.03 52.31 47.68 52.31L46.37 52.31C46.37 52.83 46.31 53.21 46.31 53.58C46.31 57.11 46.31 60.63 46.31 64.16C46.31 67.68 48.33 69.69 51.85 69.74L58.7 69.74C60.14 69.74 60.94 70.43 60.91 71.53C60.88 72.63 60.12 73.22 58.72 73.22C56.32 73.22 53.92 73.22 51.52 73.22C50.38 73.25 49.23 73.05 48.17 72.62C47.1 72.2 46.13 71.56 45.32 70.75C44.51 69.94 43.87 68.97 43.44 67.91C43.01 66.84 42.81 65.7 42.83 64.55C42.79 60.95 42.83 57.35 42.83 53.75L42.83 52.34C41.22 52.34 39.69 52.34 38.15 52.34C36.46 52.34 34.6 51.98 33.1 52.54C31.6 53.09 30.52 54.58 29.26 55.67C26.07 58.44 22.86 61.17 19.7 63.98C18.62 64.93 17.5 65.44 16.11 64.79C14.72 64.13 14.4 62.94 14.42 61.51C14.48 58.87 14.42 56.23 14.42 53.6L14.42 52.34L9.23 52.34C3.53 52.34 0.02 48.83 0.02 43.15C0.02 31.84 0.02 20.53 0.02 9.24C0.02 3.57 3.56 0.04 9.24 0.04C11.68 0.04 14.12 0.04 16.56 0.04C17.94 0.04 18.7 0.73 18.71 1.79C18.71 2.85 17.95 3.52 16.58 3.52C14.02 3.52 11.46 3.52 8.9 3.52C5.6 3.52 3.52 5.6 3.52 8.89C3.52 20.42 3.52 31.96 3.52 43.5C3.52 46.74 5.59 48.79 8.8 48.83C10.78 48.83 12.75 48.83 14.73 48.83C16.71 48.83 17.9 50 17.91 52.01C17.91 54.49 17.91 56.97 17.91 59.44L17.91 60.78C18.41 60.38 18.73 60.14 19.04 59.87C22.84 56.57 26.65 53.29 30.45 49.96C31.31 49.18 32.45 48.77 33.61 48.81C44.68 48.81 55.75 48.75 66.82 48.87C70.61 48.91 72.75 46.4 72.72 43C72.66 31.79 72.66 20.57 72.66 9.3C72.66 5.48 70.68 3.5 66.87 3.5L24.93 3.5C23.58 3.5 22.77 2.8 22.78 1.75C22.79 0.7 23.61 0.01 24.95 0.01C39.17 0.01 53.38 0.01 67.59 0.01C72.48 0.01 76.08 3.75 76.13 8.71C76.18 12.32 76.13 15.92 76.13 19.52L76.18 20.93Z" fill="#303030" fill-opacity="1.000000" fill-rule="nonzero"/>
		<path id="Vector" d="M101.08 81.75C101.08 78.72 101.08 75.98 101.08 73.24C101.08 70.85 102.17 69.78 104.54 69.78C106.48 69.78 108.41 69.78 110.35 69.78C111.03 69.8 111.71 69.68 112.34 69.43C112.97 69.18 113.55 68.8 114.03 68.31C114.51 67.83 114.88 67.26 115.13 66.62C115.38 65.99 115.49 65.31 115.47 64.63C115.47 61.86 115.47 59.13 115.47 56.38C115.47 54.99 116.16 54.22 117.19 54.2C118.22 54.19 118.95 55 118.95 56.34C118.95 59.16 118.95 61.99 118.95 64.82C118.95 67.06 118.06 69.2 116.49 70.78C114.91 72.36 112.77 73.26 110.54 73.27C108.61 73.27 106.67 73.27 104.56 73.27L104.56 74.55C104.56 77.32 104.56 80.06 104.56 82.8C104.62 83.41 104.48 84.01 104.18 84.54C103.88 85.06 103.42 85.48 102.86 85.72C102.32 85.99 101.7 86.07 101.11 85.96C100.51 85.85 99.97 85.56 99.55 85.12C95.32 81.43 91.06 77.76 86.84 74.04C86.24 73.5 85.46 73.21 84.66 73.24C79.08 73.24 73.51 73.24 67.94 73.24L67 73.24C65.74 73.24 65 72.55 65.02 71.47C65.03 70.4 65.78 69.76 67.06 69.75C68.88 69.75 70.7 69.75 72.52 69.75C76.78 69.75 81.04 69.75 85.29 69.75C86.54 69.71 87.74 70.16 88.66 71.01C92.34 74.26 96.08 77.46 99.79 80.7C100.16 80.98 100.51 81.27 101.08 81.75Z" fill="#303030" fill-opacity="1.000000" fill-rule="nonzero"/>
		<path id="Vector" d="M80.76 60.97L56.85 60.97C56.42 60.99 55.99 60.98 55.57 60.93C55.18 60.9 54.82 60.72 54.55 60.43C54.29 60.14 54.14 59.76 54.14 59.37C54.08 58.98 54.17 58.58 54.39 58.25C54.62 57.93 54.96 57.7 55.34 57.62C55.79 57.51 56.26 57.47 56.72 57.49L104.9 57.49C105.4 57.47 105.9 57.53 106.39 57.67C106.74 57.78 107.04 58.02 107.24 58.34C107.43 58.66 107.5 59.04 107.44 59.41C107.43 59.79 107.28 60.14 107.03 60.42C106.77 60.7 106.43 60.88 106.05 60.92C105.63 60.97 105.21 60.99 104.78 60.97L80.76 60.97Z" fill="#303030" fill-opacity="1.000000" fill-rule="nonzero"/>
		<path id="Vector" d="M38.01 9.93C39.94 9.94 41.81 10.62 43.31 11.85C44.81 13.09 45.83 14.79 46.22 16.69C46.61 18.63 46.29 20.64 45.31 22.36C44.34 24.08 42.78 25.39 40.92 26.05C40.73 26.08 40.56 26.14 40.4 26.24C40.24 26.34 40.11 26.47 40 26.63C39.9 26.78 39.82 26.95 39.78 27.14C39.75 27.32 39.75 27.51 39.78 27.69C39.87 28.95 39.82 30.24 39.78 31.52C39.81 31.76 39.78 32 39.71 32.23C39.64 32.46 39.51 32.68 39.35 32.86C39.19 33.04 39 33.19 38.78 33.29C38.56 33.39 38.32 33.45 38.08 33.45C37.83 33.45 37.59 33.4 37.37 33.31C37.14 33.21 36.94 33.06 36.78 32.88C36.61 32.7 36.49 32.49 36.41 32.26C36.33 32.03 36.3 31.79 36.32 31.54C36.28 29.38 36.28 27.2 36.32 25.04C36.32 23.69 36.92 23.25 38.64 23.04C39.69 22.93 40.66 22.46 41.41 21.73C42.16 20.99 42.65 20.03 42.79 18.99C42.96 17.95 42.77 16.88 42.26 15.96C41.75 15.04 40.95 14.31 39.98 13.89C39.33 13.6 38.61 13.46 37.89 13.48C37.17 13.5 36.47 13.69 35.83 14.02C35.19 14.35 34.64 14.83 34.21 15.4C33.78 15.98 33.49 16.65 33.35 17.35C33.29 17.65 33.26 17.96 33.23 18.28C33.23 18.52 33.18 18.76 33.09 18.98C32.99 19.2 32.85 19.4 32.67 19.57C32.49 19.73 32.28 19.86 32.05 19.94C31.82 20.01 31.58 20.04 31.34 20.02C30.87 19.97 30.44 19.74 30.14 19.38C29.84 19.02 29.7 18.55 29.74 18.08C29.8 16.27 30.44 14.52 31.58 13.11C32.72 11.69 34.28 10.69 36.04 10.25C36.68 10.09 37.38 10.02 38.01 9.93Z" fill="#303030" fill-opacity="1.000000" fill-rule="nonzero"/>
		<path id="Vector" d="M95.05 31.53C98.51 31.53 101.97 31.49 105.38 31.57C106.08 31.62 106.73 31.94 107.2 32.46C107.34 32.67 107.43 32.92 107.45 33.17C107.48 33.42 107.45 33.67 107.36 33.91C107.27 34.14 107.12 34.35 106.93 34.52C106.74 34.69 106.52 34.81 106.27 34.87C105.86 34.98 105.44 35.03 105.02 35.02C98.33 35.02 91.64 35.02 84.95 35.02C84.69 35.04 84.41 35.04 84.15 35.02C83.91 35.01 83.68 34.96 83.47 34.86C83.26 34.76 83.07 34.62 82.91 34.45C82.76 34.27 82.64 34.07 82.57 33.85C82.49 33.62 82.47 33.39 82.49 33.16C82.5 32.93 82.55 32.71 82.64 32.51C82.73 32.3 82.87 32.12 83.04 31.97C83.2 31.82 83.4 31.71 83.61 31.64C83.83 31.57 84.05 31.54 84.28 31.56C86.13 31.56 87.98 31.56 89.81 31.56L95.05 31.53Z" fill="#303030" fill-opacity="1.000000" fill-rule="nonzero"/>
		<path id="Vector" d="M94.92 48L85.07 48C84.64 48.01 84.21 47.99 83.79 47.91C83.41 47.85 83.06 47.64 82.82 47.33C82.57 47.02 82.46 46.64 82.49 46.24C82.46 45.87 82.57 45.5 82.79 45.21C83.02 44.91 83.34 44.7 83.7 44.62C84.08 44.53 84.46 44.5 84.85 44.51L105.03 44.51C105.34 44.5 105.65 44.51 105.96 44.56C106.17 44.57 106.38 44.63 106.57 44.73C106.76 44.83 106.93 44.96 107.07 45.13C107.2 45.29 107.31 45.48 107.37 45.69C107.43 45.89 107.45 46.11 107.43 46.32C107.44 46.53 107.41 46.73 107.34 46.92C107.27 47.12 107.16 47.3 107.02 47.45C106.88 47.6 106.72 47.72 106.53 47.81C106.34 47.89 106.14 47.94 105.94 47.95C105.24 48.02 104.55 48 103.86 48L94.92 48Z" fill="#303030" fill-opacity="1.000000" fill-rule="nonzero"/>
		<path id="Vector" d="M38.07 40.47C37.84 40.48 37.61 40.43 37.39 40.35C37.18 40.26 36.98 40.13 36.81 39.97C36.65 39.81 36.51 39.62 36.42 39.4C36.33 39.19 36.29 38.96 36.28 38.73C36.3 38.26 36.49 37.82 36.83 37.49C37.16 37.16 37.61 36.98 38.08 36.98C38.53 36.99 38.96 37.17 39.27 37.49C39.59 37.8 39.77 38.23 39.78 38.68C39.8 38.91 39.76 39.14 39.68 39.36C39.6 39.58 39.47 39.78 39.31 39.95C39.15 40.12 38.96 40.25 38.75 40.34C38.53 40.43 38.3 40.47 38.07 40.47Z" fill="#303030" fill-opacity="1.000000" fill-rule="nonzero"/>
	</g>
</svg>
