<svg width="92.000000" height="92.000000" viewBox="0 0 92 92" fill="none" xmlns="http://www.w3.org/2000/svg" xmlns:xlink="http://www.w3.org/1999/xlink">
	<desc>
			Created with Pixso.
	</desc>
	<defs>
		<clipPath id="clip3_2199">
			<rect id="Frame" rx="0.000000" width="91.000000" height="91.000000" transform="translate(0.500000 0.500000)" fill="white" fill-opacity="0"/>
		</clipPath>
	</defs>
	<rect id="Frame" rx="0.000000" width="91.000000" height="91.000000" transform="translate(0.500000 0.500000)" fill="#FFFFFF" fill-opacity="0"/>
	<g clip-path="url(#clip3_2199)">
		<path id="Vector" d="M57.5 82.12L57.5 89.37C57.5 91.52 57.02 92 54.85 92C50.12 92 45.39 92 40.66 92C39.92 92 39.19 91.87 38.89 91.19C38.66 90.63 38.61 90.01 38.77 89.42C38.99 88.67 39.7 88.39 40.49 88.39L53.84 88.39C53.84 88.12 53.9 87.87 53.9 87.66C53.9 85.27 53.9 82.87 53.9 80.46C53.92 78.85 53.43 77.29 52.49 75.99C51.55 74.69 50.21 73.73 48.68 73.25C45.84 72.32 42.98 71.46 40.11 70.62C39.71 70.54 39.3 70.59 38.94 70.78C36.85 71.83 34.53 72.37 32.19 72.36C29.84 72.35 27.53 71.79 25.44 70.72C25.08 70.56 24.66 70.53 24.28 70.63C21.55 71.43 18.84 72.28 16.13 73.12C14.5 73.56 13.06 74.55 12.06 75.91C11.05 77.27 10.54 78.93 10.6 80.63C10.6 83.16 10.6 85.7 10.6 88.34L11.63 88.34C15.74 88.34 19.83 88.34 23.94 88.34C25.28 88.34 26.09 89.21 25.93 90.4C25.88 90.82 25.67 91.21 25.35 91.49C25.03 91.77 24.62 91.92 24.19 91.91C19.07 91.93 13.95 91.93 8.83 91.91C7.68 91.91 7.02 91.14 7.01 89.91C7.01 87.34 7.01 84.77 7.01 82.05L3.25 82.05C0.28 82.05 0.01 81.78 0.01 78.84C0.01 75.9 0.01 72.85 0.01 69.86C0.01 68.32 0.66 67.67 2.19 67.67L21.36 67.67L20.78 66.95C18.69 64.52 17.48 61.46 17.34 58.26C17.19 55.3 17.22 52.33 17.44 49.38C18.08 42.22 23.99 36.64 31.24 36.1C34.7 35.87 38.14 36.86 40.96 38.88C43.78 40.91 45.81 43.85 46.71 47.2C46.97 48.16 47.13 49.13 47.17 50.12C47.21 52.99 47.25 55.87 47.11 58.73C46.92 61.87 45.68 64.86 43.58 67.2L43.17 67.71L50.49 67.71L50.49 63.98C50.49 58.84 52.86 55.64 57.8 54.11L63.22 52.42C63.04 52.17 62.9 51.96 62.74 51.77C61.42 50.06 60.57 48.04 60.29 45.89C59.94 43.75 59.34 41.64 58.81 39.52C56.99 32.21 61.59 24.89 68.83 23.58C78.26 21.89 86 30.21 83.71 39.52C83.11 41.96 82.57 44.41 82.04 46.85C81.67 48.68 80.85 50.38 79.66 51.82C79.53 51.97 79.42 52.14 79.24 52.38L84.85 54.1C89.52 55.53 92 58.88 92 63.76L92 79.83C92 81.49 91.37 82.11 89.72 82.11L57.5 82.11L57.5 82.12ZM20.78 54.23L21 54.23C20.92 55.78 20.93 57.33 21.02 58.88C21.37 61.62 22.7 64.14 24.77 65.97C26.85 67.8 29.52 68.8 32.28 68.79C37.97 68.79 42.97 64.42 43.48 58.81C43.68 56.13 43.72 53.43 43.59 50.74C43.51 47.93 42.39 45.25 40.45 43.22C38.5 41.19 35.87 39.95 33.06 39.74C30.31 39.55 27.57 40.36 25.37 42.04C23.18 43.72 21.67 46.15 21.14 48.86C20.78 50.61 20.88 52.44 20.78 54.23ZM54.11 67.67L88.4 67.67C88.4 66.2 88.4 64.8 88.4 63.39C88.45 62.11 88.06 60.85 87.3 59.81C86.54 58.77 85.46 58.02 84.22 57.68C81.91 56.95 79.59 56.32 77.29 55.52C76.7 55.27 76.07 55.14 75.44 55.14C74.8 55.14 74.17 55.27 73.59 55.52C73.46 55.58 73.35 55.67 73.26 55.78C73.17 55.9 73.1 56.03 73.07 56.17C73.01 57 73.07 57.84 73.03 58.68C73.03 59.15 72.85 59.6 72.53 59.94C72.2 60.28 71.75 60.48 71.28 60.49C71.04 60.49 70.8 60.45 70.58 60.36C70.36 60.27 70.15 60.13 69.98 59.96C69.81 59.79 69.68 59.59 69.59 59.36C69.5 59.14 69.46 58.9 69.46 58.66C69.42 57.86 69.46 57.04 69.44 56.24C69.44 56.02 69.36 55.65 69.24 55.61C68.42 55.38 67.5 54.89 66.76 55.1C63.71 55.91 60.67 56.83 57.69 57.9C55.5 58.68 54.3 60.47 54.12 62.76C54 64.37 54.1 65.99 54.1 67.67L54.11 67.67ZM57.33 78.48L88.36 78.48L88.36 71.41L52.9 71.41C55.2 73.12 56.78 75.63 57.31 78.45L57.33 78.48ZM76.52 38.03C72.78 40.22 68.71 41.2 64.47 41.54C63.95 41.58 63.81 41.8 63.83 42.27C63.86 43.17 63.83 44.07 63.83 44.96C63.87 46.61 64.45 48.19 65.49 49.46C66.54 50.74 67.97 51.63 69.58 51.99C71.14 52.36 72.77 52.2 74.23 51.55C75.69 50.9 76.9 49.79 77.68 48.39C79.08 45.87 79.41 40.8 76.51 38.01L76.52 38.03ZM62.18 38.14C63.57 38.01 64.82 37.94 66.05 37.75C69.39 37.24 72.62 36.46 75.39 34.39C76.58 33.5 77.35 33.54 78.36 34.63C79.08 35.39 79.74 36.22 80.45 37.06C80.63 35.27 80.28 33.47 79.45 31.87C78.61 30.28 77.33 28.97 75.75 28.1C74.16 27.21 72.34 26.81 70.53 26.96C68.71 27.1 66.98 27.78 65.55 28.91C62.67 31.25 61.57 34.31 62.17 38.12L62.18 38.14ZM7.16 78.5C7.69 75.67 9.27 73.14 11.58 71.43L3.64 71.43L3.64 78.5L7.16 78.5Z" fill="#303030" fill-opacity="1.000000" fill-rule="nonzero"/>
		<path id="Vector" d="M53.46 27.27C53.84 28.38 54.15 29.43 54.56 30.45C55.25 32.15 54.48 33.37 52.65 33.26C50.85 33.22 49.08 32.71 47.53 31.79C45.98 30.87 44.7 29.56 43.8 27.99C43.7 27.77 43.53 27.59 43.31 27.47C43.1 27.35 42.85 27.3 42.61 27.33C36.2 27.33 29.8 27.36 23.4 27.33C20.23 27.34 17.15 26.24 14.7 24.23C12.25 22.22 10.58 19.42 9.97 16.31C8.28 8.17 14.64 0.12 22.96 0.05C32.66 -0.03 42.35 -0.01 52.05 0.05C58.68 0.09 64.56 5.43 65.24 11.88C66 19.06 61.61 25.43 54.84 26.98L53.46 27.27ZM50.12 29.05C50.04 27.88 49.92 26.89 49.9 25.92C49.88 24.4 50.51 23.86 51.99 23.72C52.92 23.66 53.83 23.5 54.72 23.24C57.03 22.52 59 20.99 60.27 18.93C61.53 16.87 62.01 14.42 61.61 12.03C61.22 9.72 60.04 7.62 58.27 6.09C56.51 4.56 54.26 3.69 51.92 3.64C48.71 3.59 45.51 3.64 42.3 3.64C35.96 3.64 29.61 3.59 23.26 3.64C21.72 3.65 20.2 4.01 18.83 4.7C17.45 5.4 16.25 6.39 15.33 7.62C14.4 8.85 13.77 10.28 13.48 11.79C13.19 13.3 13.25 14.86 13.66 16.34C14.24 18.47 15.5 20.34 17.25 21.68C19.01 23.01 21.15 23.73 23.35 23.73C30.27 23.77 37.18 23.73 44.1 23.73C45.64 23.73 46.02 24.01 46.54 25.43C47.19 27.14 48.44 28.21 50.11 29.05L50.12 29.05Z" fill="#303030" fill-opacity="1.000000" fill-rule="nonzero"/>
		<path id="Vector" d="M37.56 11.52C32.92 11.52 28.29 11.52 23.66 11.52C23.27 11.57 22.88 11.49 22.54 11.29C22.2 11.1 21.92 10.81 21.76 10.45C21.64 10.2 21.59 9.93 21.6 9.65C21.61 9.37 21.69 9.1 21.82 8.86C21.95 8.61 22.14 8.41 22.37 8.25C22.6 8.09 22.86 7.99 23.14 7.95C23.41 7.92 23.68 7.91 23.95 7.92L51.14 7.92C51.32 7.92 51.5 7.92 51.65 7.92C51.89 7.93 52.13 7.98 52.35 8.07C52.57 8.16 52.77 8.3 52.94 8.47C53.1 8.65 53.24 8.85 53.32 9.07C53.41 9.3 53.45 9.54 53.45 9.77C53.44 10.01 53.39 10.24 53.3 10.45C53.21 10.66 53.07 10.85 52.9 11.01C52.73 11.17 52.54 11.3 52.32 11.38C52.1 11.47 51.87 11.51 51.64 11.5C50.29 11.53 48.95 11.5 47.6 11.5L37.56 11.52Z" fill="#303030" fill-opacity="1.000000" fill-rule="nonzero"/>
		<path id="Vector" d="M31.62 19.42L23.71 19.42C22.41 19.42 21.58 18.73 21.58 17.64C21.57 16.56 22.41 15.83 23.69 15.83L39.68 15.83C40.97 15.83 41.79 16.57 41.77 17.67C41.75 18.76 40.95 19.42 39.71 19.42C37.01 19.43 34.32 19.42 31.62 19.42Z" fill="#303030" fill-opacity="1.000000" fill-rule="nonzero"/>
	</g>
</svg>
