<svg width="77.000000" height="96.000000" viewBox="0 0 77 96" fill="none" xmlns="http://www.w3.org/2000/svg" xmlns:xlink="http://www.w3.org/1999/xlink">
	<desc>
			Created with Pixso.
	</desc>
	<defs>
		<clipPath id="clip3_2164">
			<rect id="Frame" rx="0.000000" width="76.000000" height="95.000000" transform="translate(0.500000 0.500000)" fill="white" fill-opacity="0"/>
		</clipPath>
	</defs>
	<rect id="Frame" rx="0.000000" width="76.000000" height="95.000000" transform="translate(0.500000 0.500000)" fill="#FFFFFF" fill-opacity="0"/>
	<g clip-path="url(#clip3_2164)">
		<path id="Vector" d="M59.38 68.49C59.92 70.52 60.45 72.48 60.97 74.43C61.01 74.61 61.08 74.78 61.12 74.97C61.18 75.16 61.2 75.36 61.18 75.56C61.16 75.76 61.09 75.95 60.99 76.12C60.89 76.29 60.76 76.44 60.6 76.56C60.43 76.68 60.25 76.76 60.05 76.8C59.87 76.84 59.68 76.84 59.49 76.81C59.3 76.77 59.12 76.7 58.97 76.59C58.81 76.49 58.68 76.35 58.57 76.19C58.47 76.03 58.4 75.85 58.37 75.67C57.82 73.75 57.32 71.81 56.8 69.88C56.75 69.71 56.69 69.54 56.59 69.27C56.33 69.49 56.12 69.66 55.94 69.84C53.89 71.87 51.84 73.9 49.82 75.93C49.57 76.23 49.23 76.46 48.86 76.56C48.48 76.67 48.08 76.66 47.7 76.54C46.2 76.09 44.68 75.72 42.95 75.27C44.44 80.82 45.89 86.23 47.39 91.77L51.67 87.13C51.97 86.81 52.28 86.49 52.55 86.16C52.76 85.89 53.06 85.69 53.39 85.6C53.72 85.52 54.07 85.54 54.39 85.67C56.74 86.43 59.11 87.15 61.65 87.95C61.18 86.19 60.76 84.58 60.33 82.97C60.26 82.69 60.18 82.42 60.11 82.16C59.86 81.17 60.24 80.44 61.08 80.24C61.27 80.19 61.47 80.18 61.66 80.21C61.86 80.24 62.04 80.31 62.21 80.42C62.37 80.53 62.51 80.67 62.62 80.84C62.73 81.01 62.79 81.19 62.82 81.39C63.34 83.25 63.84 85.12 64.34 86.99C64.56 87.81 64.79 88.62 64.99 89.43C65.36 90.9 64.47 91.79 63.02 91.34C60.45 90.55 57.87 89.76 55.31 88.9C54.99 88.74 54.62 88.7 54.26 88.78C53.91 88.87 53.6 89.09 53.39 89.39C51.67 91.37 49.89 93.31 48.06 95.2C47.61 95.65 47.02 95.92 46.39 95.96C45.6 95.96 45.35 95.19 45.16 94.5C43.45 88.11 41.7 81.7 40.03 75.31C40.01 75.14 39.95 74.97 39.87 74.82C39.78 74.66 39.66 74.53 39.52 74.42C39.38 74.31 39.22 74.23 39.05 74.19C38.87 74.14 38.7 74.13 38.52 74.15C38.16 74.11 37.81 74.21 37.52 74.41C37.23 74.62 37.03 74.94 36.96 75.28C35.31 81.66 33.57 88.02 31.86 94.38C31.67 95.09 31.48 95.8 30.64 96.01C29.8 96.21 29.31 95.65 28.8 95.11C26.97 93.11 25.13 91.14 23.35 89.13C23.21 88.93 23 88.79 22.77 88.73C22.53 88.67 22.28 88.69 22.06 88.79C19.44 89.66 16.8 90.48 14.18 91.31C13.53 91.52 12.88 91.66 12.34 91.12C11.79 90.59 11.86 89.97 12.04 89.29C13.87 82.58 15.68 75.85 17.48 69.13C17.52 68.98 17.54 68.83 17.6 68.56C16.14 68.16 14.7 67.76 13.26 67.38C9.63 66.41 10.35 66.99 9.36 63.5C8.74 61.37 8.22 59.24 7.59 57.09C7.41 56.53 7.12 56.03 6.72 55.6C5.55 54.38 4.32 53.21 3.13 52.01C2.35 51.22 2.27 50.42 2.9 49.8C3.53 49.18 4.33 49.24 5.13 50.03C6.56 51.44 8 52.83 9.39 54.29C9.76 54.71 10.03 55.21 10.18 55.74C10.9 58.3 11.6 60.86 12.25 63.43C12.29 63.7 12.41 63.95 12.61 64.15C12.8 64.34 13.05 64.47 13.32 64.51C15.93 65.18 18.54 65.87 21.14 66.6C21.7 66.77 22.22 67.06 22.65 67.46C24.57 69.29 26.47 71.18 28.32 73.1C28.51 73.33 28.77 73.5 29.07 73.57C29.36 73.65 29.67 73.63 29.95 73.51C32.52 72.78 35.09 72.1 37.68 71.45C38.25 71.32 38.85 71.32 39.42 71.45C42.04 72.1 44.65 72.8 47.24 73.52C47.49 73.62 47.75 73.63 48 73.57C48.25 73.5 48.48 73.36 48.64 73.16C50.48 71.27 52.31 69.4 54.24 67.59C54.78 67.08 55.43 66.71 56.14 66.49C58.59 65.78 61.04 65.13 63.49 64.54C63.84 64.48 64.16 64.32 64.4 64.06C64.64 63.81 64.8 63.49 64.84 63.14C65.45 60.7 66.07 58.23 66.81 55.83C67.01 55.15 67.37 54.52 67.86 54C69.7 52.1 71.56 50.25 73.45 48.42C73.66 48.25 73.8 48.03 73.87 47.78C73.94 47.53 73.93 47.26 73.84 47.02C73.11 44.47 72.41 41.91 71.77 39.33C71.61 38.67 71.61 37.99 71.77 37.33C72.38 34.75 73.09 32.19 73.82 29.64C73.91 29.4 73.93 29.13 73.85 28.88C73.78 28.63 73.63 28.41 73.43 28.25C71.52 26.43 69.62 24.52 67.76 22.61C67.31 22.14 66.98 21.57 66.8 20.95C66.05 18.4 65.37 15.84 64.72 13.27C64.67 13 64.55 12.75 64.35 12.56C64.15 12.37 63.9 12.24 63.63 12.2C61.05 11.54 58.47 10.87 55.91 10.14C55.29 9.95 54.72 9.62 54.24 9.17C52.3 7.31 50.39 5.4 48.5 3.49C48.36 3.31 48.16 3.18 47.94 3.13C47.72 3.07 47.49 3.08 47.28 3.16C44.62 3.91 41.95 4.61 39.27 5.28C38.73 5.41 38.17 5.41 37.63 5.28C35.04 4.64 32.46 3.95 29.89 3.24C29.61 3.12 29.3 3.1 29.01 3.17C28.71 3.25 28.45 3.41 28.26 3.65C26.43 5.55 24.57 7.41 22.66 9.22C22.19 9.67 21.61 9.99 20.99 10.17C18.37 10.93 15.72 11.6 13.1 12.35C12.92 12.43 12.75 12.54 12.61 12.68C12.47 12.82 12.36 12.98 12.28 13.17C11.55 15.72 10.92 18.3 10.17 20.85C9.96 21.53 9.59 22.15 9.11 22.68C7.27 24.58 5.43 26.43 3.52 28.26C3.32 28.42 3.17 28.65 3.11 28.9C3.04 29.15 3.06 29.42 3.15 29.66C3.88 32.21 4.58 34.78 5.23 37.35C5.38 37.95 5.39 38.57 5.27 39.17C4.84 41 4.31 42.79 3.82 44.6C3.51 45.72 2.84 46.19 1.94 45.92C1.04 45.66 0.82 44.95 1.1 43.86C1.12 43.77 1.14 43.67 1.17 43.58C2.7 40.01 2.51 36.46 1.13 32.88C0.67 31.66 0.44 30.45 0.09 29.18C-0.03 28.83 -0.05 28.45 0.05 28.08C0.15 27.72 0.35 27.4 0.64 27.15C2.73 25.12 4.79 23.06 6.83 20.97C7.17 20.62 7.42 20.19 7.56 19.71C8.34 16.92 9.09 14.11 9.82 11.31C9.89 10.94 10.06 10.59 10.33 10.33C10.59 10.06 10.93 9.88 11.3 9.81C14.07 9.11 16.81 8.38 19.57 7.6C20.16 7.42 20.7 7.11 21.16 6.7C23.14 4.78 25.1 2.84 27.01 0.85C27.32 0.48 27.74 0.21 28.2 0.09C28.67 -0.03 29.17 0 29.62 0.17C32.3 0.94 35 1.65 37.71 2.33C38.22 2.46 38.75 2.46 39.25 2.33C42.02 1.63 44.76 0.9 47.53 0.12C47.92 -0.03 48.35 -0.04 48.76 0.06C49.17 0.17 49.53 0.4 49.8 0.73C51.84 2.78 53.89 4.82 55.93 6.82C56.26 7.13 56.67 7.36 57.11 7.48C59.89 8.25 62.68 9.01 65.48 9.72C65.91 9.8 66.3 10.01 66.61 10.32C66.91 10.63 67.12 11.03 67.19 11.46C67.88 14.21 68.64 16.94 69.42 19.68C69.56 20.15 69.81 20.58 70.15 20.94C72.11 22.93 74.07 24.91 76.1 26.83C76.47 27.14 76.75 27.55 76.88 28.01C77 28.48 76.98 28.97 76.82 29.42C76.03 32.12 75.33 34.84 74.64 37.57C74.52 38.04 74.52 38.54 74.64 39.02C75.34 41.77 76.07 44.5 76.85 47.25C77 47.66 77.03 48.1 76.92 48.52C76.81 48.94 76.57 49.32 76.24 49.6C74.23 51.54 72.25 53.51 70.32 55.51C69.91 55.93 69.61 56.44 69.45 57C68.66 59.76 67.91 62.53 67.19 65.32C67.12 65.69 66.94 66.02 66.67 66.29C66.41 66.55 66.07 66.73 65.7 66.8C63.6 67.32 61.53 67.91 59.38 68.49ZM15.34 87.94C17.79 87.15 20.05 86.47 22.28 85.71C22.69 85.52 23.16 85.48 23.6 85.59C24.04 85.7 24.43 85.96 24.7 86.32C26.08 87.91 27.52 89.42 28.94 90.98C29.17 91.27 29.39 91.57 29.59 91.88C31.12 86.15 32.57 80.78 34.06 75.25C32.35 75.7 30.83 76.06 29.33 76.5C28.98 76.63 28.59 76.64 28.23 76.54C27.87 76.45 27.54 76.24 27.3 75.95C25.28 73.91 23.22 71.89 21.18 69.86C20.97 69.66 20.75 69.46 20.41 69.15C18.72 75.45 17.05 81.59 15.34 87.94Z" fill="#303030" fill-opacity="1.000000" fill-rule="nonzero"/>
		<path id="Vector" d="M13.21 29.62L14.3 29.62C18.73 29.62 23.16 29.62 27.59 29.62C28.06 29.55 28.53 29.67 28.92 29.95C29.3 30.22 29.56 30.63 29.65 31.1C31.85 29.18 34.03 27.44 35.99 25.52C37.31 24.21 37.52 22.36 37.53 20.54C37.5 19.88 37.55 19.23 37.67 18.59C37.88 17.78 38.35 17.06 39.01 16.54C39.67 16.02 40.48 15.72 41.32 15.7C42.17 15.65 43.02 15.89 43.73 16.37C44.44 16.85 44.96 17.55 45.22 18.37C46.45 22.15 46.88 25.99 45.95 29.94C45.92 30.12 45.89 30.3 45.85 30.55C48.47 30.55 51.04 30.55 53.61 30.55C54.18 30.54 54.74 30.58 55.3 30.68C56.03 30.83 56.71 31.17 57.27 31.66C57.83 32.15 58.26 32.78 58.49 33.49C58.73 34.2 58.77 34.95 58.62 35.68C58.47 36.41 58.13 37.09 57.63 37.65C57.43 37.81 57.3 38.03 57.26 38.28C57.21 38.53 57.26 38.79 57.38 39.01C57.72 39.74 57.83 40.56 57.69 41.35C57.55 42.14 57.18 42.88 56.62 43.46C56.44 43.6 56.31 43.8 56.27 44.02C56.23 44.25 56.26 44.48 56.38 44.68C56.76 45.46 56.88 46.34 56.72 47.19C56.56 48.04 56.12 48.82 55.48 49.41C55.31 49.54 55.2 49.72 55.16 49.93C55.11 50.13 55.15 50.35 55.25 50.53C55.52 51.18 55.63 51.89 55.56 52.59C55.48 53.29 55.24 53.96 54.84 54.54C54.45 55.13 53.91 55.6 53.29 55.93C52.66 56.26 51.96 56.43 51.25 56.42C46.1 56.46 40.94 56.49 35.79 56.38C34.77 56.38 33.73 55.77 32.73 55.38C31.74 54.98 30.77 54.5 29.57 53.96C29.57 54.63 29.57 55.01 29.57 55.37C29.57 56.71 29.07 57.2 27.73 57.2L19.51 57.2C20.32 57.92 20.9 58.5 21.55 59.03C29.68 65.29 38.69 66.85 48.24 63.11C57.78 59.38 63.51 52.15 64.96 42.03C66.31 32.66 63.16 24.69 56.1 18.28C55.96 18.15 55.81 18.03 55.68 17.9C54.97 17.23 54.88 16.46 55.42 15.83C55.55 15.68 55.7 15.55 55.88 15.47C56.06 15.38 56.26 15.33 56.45 15.33C56.65 15.32 56.85 15.36 57.03 15.44C57.21 15.52 57.38 15.64 57.51 15.78C59.06 17.19 60.52 18.7 61.87 20.3C75.54 37.72 65.46 63.63 43.58 67.37C35.86 68.72 27.92 66.97 21.5 62.5C15.07 58.04 10.68 51.23 9.3 43.55C6.27 27.2 17.87 11.33 34.44 9.15C39.92 8.36 45.51 9.14 50.56 11.39C51.04 11.59 51.43 11.96 51.64 12.43C51.69 12.67 51.68 12.93 51.62 13.17C51.55 13.41 51.42 13.63 51.24 13.81C50.74 14.08 50.16 14.14 49.61 13.99C47.45 13.38 45.33 12.51 43.14 12.07C30.9 9.59 17.59 17.16 13.43 28.9C13.35 29.1 13.31 29.31 13.21 29.62ZM29.63 51.31C31.48 51.53 33.25 52.21 34.77 53.28C35.22 53.52 35.72 53.62 36.22 53.57C40.11 53.57 44.01 53.57 47.91 53.57C49.04 53.57 50.17 53.57 51.3 53.57C51.68 53.58 52.05 53.43 52.33 53.17C52.61 52.91 52.77 52.55 52.79 52.17C52.79 51.79 52.65 51.42 52.39 51.14C52.14 50.86 51.78 50.69 51.4 50.66C50.97 50.61 50.52 50.66 50.08 50.66C49.03 50.63 48.46 50.11 48.48 49.24C48.49 48.36 49.09 47.89 50.04 47.85C50.76 47.85 51.49 47.85 52.21 47.85C53.29 47.85 53.94 47.28 53.95 46.42C53.97 45.55 53.29 44.96 52.17 44.94C51.82 44.94 51.48 44.94 51.13 44.94C50.02 44.9 49.41 44.39 49.43 43.49C49.45 42.59 50.04 42.15 51.1 42.12C51.85 42.12 52.61 42.12 53.36 42.12C53.57 42.13 53.77 42.1 53.96 42.03C54.16 41.95 54.33 41.84 54.48 41.7C54.62 41.55 54.74 41.38 54.81 41.19C54.89 41 54.92 40.79 54.91 40.59C54.9 40.39 54.85 40.2 54.77 40.02C54.68 39.85 54.56 39.69 54.41 39.56C54.26 39.43 54.09 39.33 53.9 39.27C53.72 39.21 53.52 39.18 53.32 39.2C52.57 39.2 51.82 39.2 51.06 39.2C50.04 39.2 49.42 38.63 49.43 37.78C49.44 36.93 50.04 36.4 51.07 36.38C52.17 36.43 53.27 36.42 54.37 36.34C54.64 36.29 54.91 36.18 55.14 36.02C55.38 35.86 55.58 35.66 55.73 35.42C55.81 35.18 55.83 34.93 55.79 34.68C55.75 34.43 55.64 34.19 55.49 33.99C55.08 33.63 54.54 33.44 53.99 33.44C50.82 33.39 47.64 33.44 44.47 33.44C42.6 33.44 42.1 32.74 42.73 30.97C44.1 27.11 43.75 23.28 42.6 19.46C42.58 19.32 42.52 19.19 42.44 19.07C42.36 18.95 42.26 18.85 42.14 18.77C42.02 18.69 41.89 18.64 41.74 18.61C41.6 18.58 41.46 18.58 41.32 18.61C41.17 18.63 41.04 18.67 40.91 18.74C40.78 18.81 40.67 18.91 40.59 19.02C40.5 19.13 40.43 19.26 40.4 19.4C40.36 19.54 40.35 19.69 40.37 19.83C40.37 20.27 40.37 20.71 40.37 21.14C40.37 22.57 40.08 23.98 39.5 25.29C38.93 26.6 38.08 27.77 37.03 28.74C36.25 29.46 35.4 30.11 34.58 30.78C33.13 32 31.63 33.11 30.22 34.36C29.85 34.71 29.63 35.2 29.61 35.71C29.57 40.68 29.58 45.65 29.61 50.62C29.59 50.77 29.62 51.01 29.63 51.31ZM26.69 54.35L26.69 32.51L12.3 32.51C12.14 33.65 11.94 34.73 11.84 35.81C11.18 42.22 12.92 48.64 16.74 53.84C16.83 53.97 16.95 54.08 17.09 54.17C17.23 54.25 17.38 54.31 17.54 54.33C20.56 54.35 23.62 54.35 26.68 54.35L26.69 54.35Z" fill="#303030" fill-opacity="1.000000" fill-rule="nonzero"/>
	</g>
</svg>
