<svg width="16.000000" height="15.000000" viewBox="0 0 16 15" fill="none" xmlns="http://www.w3.org/2000/svg" xmlns:xlink="http://www.w3.org/1999/xlink">
	<desc>
			Created with Pixso.
	</desc>
	<defs/>
	<path id="Vector" d="M15.46 0.35C15.25 0.17 15 0.06 14.74 0.01C14.47 -0.03 14.2 0 13.95 0.11L0.92 5.51C0.64 5.63 0.4 5.83 0.24 6.09C0.07 6.35 -0.01 6.65 0 6.96C0 7.27 0.1 7.57 0.28 7.82C0.46 8.07 0.71 8.26 0.99 8.36L3.63 9.3L5.1 14.29C5.12 14.35 5.15 14.42 5.18 14.48C5.19 14.48 5.2 14.49 5.2 14.5C5.25 14.56 5.3 14.62 5.36 14.66C5.37 14.67 5.39 14.69 5.41 14.7C5.48 14.75 5.55 14.78 5.63 14.8L5.64 14.8L5.65 14.8C5.7 14.81 5.74 14.82 5.79 14.82L5.81 14.82C5.88 14.81 5.96 14.8 6.03 14.78C6.04 14.77 6.06 14.76 6.07 14.75C6.13 14.73 6.18 14.7 6.22 14.67C6.26 14.64 6.3 14.6 6.33 14.57L8.3 12.35L11.23 14.68C11.49 14.88 11.8 14.99 12.13 15C12.47 14.99 12.81 14.87 13.07 14.65C13.34 14.43 13.52 14.12 13.59 13.78L15.97 1.82C16.02 1.55 16 1.27 15.91 1.01C15.82 0.75 15.67 0.52 15.46 0.35ZM6.08 9.54C5.98 9.64 5.91 9.77 5.88 9.91L5.66 11.04L5.09 9.1L8.05 7.52L6.08 9.54ZM12.12 13.5L8.66 10.74C8.51 10.63 8.33 10.57 8.15 10.59C7.96 10.61 7.8 10.69 7.67 10.83L7.04 11.54L7.26 10.43L12.42 5.15C12.54 5.02 12.61 4.85 12.63 4.68C12.64 4.5 12.59 4.32 12.49 4.18C12.38 4.04 12.24 3.93 12.07 3.89C11.9 3.85 11.72 3.88 11.57 3.96L4.17 7.91L1.46 6.89L14.54 1.52L12.12 13.5Z" fill="#303030" fill-opacity="1.000000" fill-rule="nonzero"/>
</svg>
