<svg width="17.000000" height="17.000000" viewBox="0 0 17 17" fill="none" xmlns="http://www.w3.org/2000/svg" xmlns:xlink="http://www.w3.org/1999/xlink">
	<desc>
			Created with Pixso.
	</desc>
	<defs/>
	<path id="Vector" d="M14.45 2.47C12.86 0.87 10.74 0 8.49 0C3.85 0 0.07 3.77 0.07 8.42C0.07 9.9 0.45 11.35 1.19 12.63L0 17L4.46 15.82C5.69 16.49 7.08 16.85 8.49 16.85L8.49 16.85C13.13 16.85 17 13.07 17 8.42C17 6.17 16.04 4.06 14.45 2.47ZM8.49 15.43C7.23 15.43 6 15.09 4.92 14.45L4.67 14.3L2.02 15L2.73 12.41L2.56 12.15C1.86 11.03 1.49 9.74 1.49 8.42C1.49 4.56 4.63 1.42 8.5 1.42C10.37 1.42 12.12 2.15 13.44 3.47C14.76 4.8 15.58 6.55 15.57 8.42C15.57 12.29 12.35 15.43 8.49 15.43ZM12.33 10.18C12.12 10.08 11.09 9.57 10.89 9.5C10.7 9.43 10.56 9.39 10.42 9.61C10.28 9.82 9.88 10.29 9.75 10.43C9.63 10.57 9.5 10.59 9.3 10.49C8.06 9.87 7.25 9.38 6.43 7.98C6.21 7.61 6.65 7.64 7.05 6.83C7.12 6.69 7.08 6.57 7.03 6.46C6.98 6.36 6.56 5.32 6.38 4.9C6.21 4.49 6.04 4.55 5.91 4.54C5.79 4.53 5.65 4.53 5.5 4.53C5.36 4.53 5.14 4.59 4.94 4.8C4.75 5.01 4.21 5.52 4.21 6.55C4.21 7.59 4.96 8.59 5.06 8.73C5.17 8.87 6.55 11 8.66 11.91C10 12.49 10.52 12.54 11.19 12.44C11.6 12.38 12.43 11.93 12.61 11.44C12.78 10.94 12.78 10.52 12.73 10.43C12.68 10.34 12.54 10.29 12.33 10.18Z" fill="#303030" fill-opacity="1.000000" fill-rule="nonzero"/>
</svg>
